<mxfile host="Electron" agent="Mozilla/5.0 (Windows NT 10.0; Win64; x64) AppleWebKit/537.36 (KHTML, like Gecko) draw.io/24.7.17 Chrome/128.0.6613.36 Electron/32.0.1 Safari/537.36" version="24.7.17">
  <diagram name="第 1 页" id="456JlXNFP0LC1m3SG97h">
    <mxGraphModel dx="1338" dy="551" grid="1" gridSize="10" guides="1" tooltips="1" connect="1" arrows="1" fold="1" page="1" pageScale="1" pageWidth="827" pageHeight="1169" math="0" shadow="0">
      <root>
        <mxCell id="0" />
        <mxCell id="1" parent="0" />
        <mxCell id="LLN9OHwl2VbE0uCX0DBm-10" style="edgeStyle=orthogonalEdgeStyle;rounded=0;orthogonalLoop=1;jettySize=auto;html=1;exitX=0.75;exitY=1;exitDx=0;exitDy=0;entryX=0.75;entryY=0;entryDx=0;entryDy=0;" edge="1" parent="1" source="LLN9OHwl2VbE0uCX0DBm-1" target="LLN9OHwl2VbE0uCX0DBm-2">
          <mxGeometry relative="1" as="geometry" />
        </mxCell>
        <mxCell id="LLN9OHwl2VbE0uCX0DBm-16" value="向下指派" style="edgeLabel;html=1;align=center;verticalAlign=middle;resizable=0;points=[];" vertex="1" connectable="0" parent="LLN9OHwl2VbE0uCX0DBm-10">
          <mxGeometry x="-0.1" relative="1" as="geometry">
            <mxPoint as="offset" />
          </mxGeometry>
        </mxCell>
        <mxCell id="LLN9OHwl2VbE0uCX0DBm-1" value="引导类加载器（BCL）" style="rounded=0;whiteSpace=wrap;html=1;" vertex="1" parent="1">
          <mxGeometry x="270" y="100" width="130" height="60" as="geometry" />
        </mxCell>
        <mxCell id="LLN9OHwl2VbE0uCX0DBm-9" style="edgeStyle=orthogonalEdgeStyle;rounded=0;orthogonalLoop=1;jettySize=auto;html=1;exitX=0.25;exitY=0;exitDx=0;exitDy=0;entryX=0.25;entryY=1;entryDx=0;entryDy=0;" edge="1" parent="1" source="LLN9OHwl2VbE0uCX0DBm-2" target="LLN9OHwl2VbE0uCX0DBm-1">
          <mxGeometry relative="1" as="geometry" />
        </mxCell>
        <mxCell id="LLN9OHwl2VbE0uCX0DBm-14" value="向上委托" style="edgeLabel;html=1;align=center;verticalAlign=middle;resizable=0;points=[];" vertex="1" connectable="0" parent="LLN9OHwl2VbE0uCX0DBm-9">
          <mxGeometry y="1" relative="1" as="geometry">
            <mxPoint x="1" as="offset" />
          </mxGeometry>
        </mxCell>
        <mxCell id="LLN9OHwl2VbE0uCX0DBm-11" style="edgeStyle=orthogonalEdgeStyle;rounded=0;orthogonalLoop=1;jettySize=auto;html=1;exitX=0.75;exitY=1;exitDx=0;exitDy=0;entryX=0.75;entryY=0;entryDx=0;entryDy=0;" edge="1" parent="1" source="LLN9OHwl2VbE0uCX0DBm-2" target="LLN9OHwl2VbE0uCX0DBm-3">
          <mxGeometry relative="1" as="geometry" />
        </mxCell>
        <mxCell id="LLN9OHwl2VbE0uCX0DBm-17" value="向下指派" style="edgeLabel;html=1;align=center;verticalAlign=middle;resizable=0;points=[];" vertex="1" connectable="0" parent="LLN9OHwl2VbE0uCX0DBm-11">
          <mxGeometry x="-0.0071" relative="1" as="geometry">
            <mxPoint as="offset" />
          </mxGeometry>
        </mxCell>
        <mxCell id="LLN9OHwl2VbE0uCX0DBm-2" value="扩展类加载器（ECL）" style="rounded=0;whiteSpace=wrap;html=1;" vertex="1" parent="1">
          <mxGeometry x="270" y="200" width="130" height="60" as="geometry" />
        </mxCell>
        <mxCell id="LLN9OHwl2VbE0uCX0DBm-8" style="edgeStyle=orthogonalEdgeStyle;rounded=0;orthogonalLoop=1;jettySize=auto;html=1;exitX=0.25;exitY=0;exitDx=0;exitDy=0;entryX=0.25;entryY=1;entryDx=0;entryDy=0;" edge="1" parent="1" source="LLN9OHwl2VbE0uCX0DBm-3" target="LLN9OHwl2VbE0uCX0DBm-2">
          <mxGeometry relative="1" as="geometry" />
        </mxCell>
        <mxCell id="LLN9OHwl2VbE0uCX0DBm-15" value="向上委托" style="edgeLabel;html=1;align=center;verticalAlign=middle;resizable=0;points=[];" vertex="1" connectable="0" parent="LLN9OHwl2VbE0uCX0DBm-8">
          <mxGeometry x="-0.05" y="1" relative="1" as="geometry">
            <mxPoint x="1" as="offset" />
          </mxGeometry>
        </mxCell>
        <mxCell id="LLN9OHwl2VbE0uCX0DBm-12" style="edgeStyle=orthogonalEdgeStyle;rounded=0;orthogonalLoop=1;jettySize=auto;html=1;exitX=0.5;exitY=1;exitDx=0;exitDy=0;entryX=0.5;entryY=0;entryDx=0;entryDy=0;" edge="1" parent="1" source="LLN9OHwl2VbE0uCX0DBm-3" target="LLN9OHwl2VbE0uCX0DBm-4">
          <mxGeometry relative="1" as="geometry" />
        </mxCell>
        <mxCell id="LLN9OHwl2VbE0uCX0DBm-13" style="edgeStyle=orthogonalEdgeStyle;rounded=0;orthogonalLoop=1;jettySize=auto;html=1;exitX=0.5;exitY=1;exitDx=0;exitDy=0;entryX=0.5;entryY=0;entryDx=0;entryDy=0;" edge="1" parent="1" source="LLN9OHwl2VbE0uCX0DBm-3" target="LLN9OHwl2VbE0uCX0DBm-5">
          <mxGeometry relative="1" as="geometry" />
        </mxCell>
        <mxCell id="LLN9OHwl2VbE0uCX0DBm-3" value="应用类加载器（ACL）" style="rounded=0;whiteSpace=wrap;html=1;" vertex="1" parent="1">
          <mxGeometry x="270" y="300" width="130" height="60" as="geometry" />
        </mxCell>
        <mxCell id="LLN9OHwl2VbE0uCX0DBm-6" style="edgeStyle=orthogonalEdgeStyle;rounded=0;orthogonalLoop=1;jettySize=auto;html=1;entryX=0.5;entryY=1;entryDx=0;entryDy=0;" edge="1" parent="1" source="LLN9OHwl2VbE0uCX0DBm-4" target="LLN9OHwl2VbE0uCX0DBm-3">
          <mxGeometry relative="1" as="geometry" />
        </mxCell>
        <mxCell id="LLN9OHwl2VbE0uCX0DBm-4" value="自定义加载器A" style="rounded=0;whiteSpace=wrap;html=1;" vertex="1" parent="1">
          <mxGeometry x="200" y="400" width="130" height="60" as="geometry" />
        </mxCell>
        <mxCell id="LLN9OHwl2VbE0uCX0DBm-7" style="edgeStyle=orthogonalEdgeStyle;rounded=0;orthogonalLoop=1;jettySize=auto;html=1;entryX=0.5;entryY=1;entryDx=0;entryDy=0;" edge="1" parent="1" source="LLN9OHwl2VbE0uCX0DBm-5" target="LLN9OHwl2VbE0uCX0DBm-3">
          <mxGeometry relative="1" as="geometry" />
        </mxCell>
        <mxCell id="LLN9OHwl2VbE0uCX0DBm-5" value="自定义加载器B" style="rounded=0;whiteSpace=wrap;html=1;" vertex="1" parent="1">
          <mxGeometry x="340" y="400" width="130" height="60" as="geometry" />
        </mxCell>
      </root>
    </mxGraphModel>
  </diagram>
</mxfile>
